<?xml version="1.0" encoding="UTF-8" standalone="no"?>
<!-- Created with Inkscape (http://www.inkscape.org/) -->

<svg
   width="210mm"
   height="297mm"
   viewBox="0 0 210 297"
   version="1.1"
   id="svg1"
   xmlns:inkscape="http://www.inkscape.org/namespaces/inkscape"
   xmlns:sodipodi="http://sodipodi.sourceforge.net/DTD/sodipodi-0.dtd"
   xmlns="http://www.w3.org/2000/svg"
   xmlns:svg="http://www.w3.org/2000/svg">
  <sodipodi:namedview
     id="namedview1"
     pagecolor="#ffffff"
     bordercolor="#000000"
     borderopacity="0.25"
     inkscape:showpageshadow="2"
     inkscape:pageopacity="0.0"
     inkscape:pagecheckerboard="0"
     inkscape:deskcolor="#d1d1d1"
     inkscape:document-units="mm" />
  <defs
     id="defs1" />
  <g
     inkscape:label="Capa 1"
     inkscape:groupmode="layer"
     id="layer1">
    <path
       id="path14"
       d="m 99.18895,132.61731 c 0.16826,-0.72444 0.55198,-1.39846 1.0897,-1.91134 1.52418,4.4229 2.94954,8.88147 4.27474,13.36957 1.14624,-3.20156 2.29235,-6.4019 3.43858,-9.60223 0.44334,0.82653 0.88666,1.65305 1.32987,2.47958 -0.19271,-3.9998 -0.38556,-8.00083 -0.57841,-12.00187 1.29546,1.45872 2.59091,2.91622 3.88622,4.37494 -1.29765,-5.15104 -2.94031,-10.21475 -4.91323,-15.14686 1.60984,0.8868 3.05463,2.07247 4.23884,3.47953 -1.16209,-5.12029 -2.32418,-10.24181 -3.48615,-15.3621 -0.62818,-2.767381 -1.32384,-5.668841 -3.23395,-7.765911 -4.99486,-5.48681 -14.205695,-1.67397 -14.646688,5.526171 -0.168507,2.75018 0.952291,5.62703 1.04693,8.41164 0.13655,4.01703 0.82889,7.91105 2.05846,11.74113 1.385295,4.31466 3.320602,8.43869 5.495088,12.40775"
       style="fill:#00008B;fill-opacity:1;fill-rule:nonzero;stroke:none;stroke-width:0.0353262" />
    <path
       id="path15"
       d="m 119.60112,81.387349 c 5.35301,1.47841 10.33619,4.46842 13.87777,8.74742 5.78429,6.98982 7.2265,16.528091 7.96947,25.573161 0.52334,6.36993 0.80849,12.80011 -0.0136,19.13806 -1.07962,-2.29141 -2.15912,-4.58158 -3.23874,-6.87175 -0.28982,1.89904 -0.57951,3.79933 -0.86909,5.6996 -1.82678,-4.73901 -3.72361,-9.45095 -5.68965,-14.13462 -1.08687,1.872 -2.17374,3.74398 -3.26074,5.61597 -0.0459,-1.36279 -0.29117,-2.71942 -0.72541,-4.0121 -1.18323,1.67273 -2.36646,3.3467 -3.5497,5.02066 -0.53169,-5.37612 -1.41319,-10.7178 -2.63723,-15.97953 -1.23608,1.12049 -2.4723,2.24097 -3.70838,3.36145 -0.404,-1.25947 -1.09204,-2.42669 -1.99799,-3.38975 -0.86858,1.06638 -1.73717,2.13151 -2.60577,3.19788 0.30666,-0.37636 -8.50448,-7.71303 -9.30781,-8.40426 -3.20925,-2.76247 -6.387273,-5.636871 -8.862269,-9.097951 -1.849886,-2.58782 -4.334469,-6.40805 -2.351965,-9.56411 1.980046,-3.15113 6.921556,-4.55574 10.284924,-5.25681 5.47912,-1.14263 11.27459,-1.13648 16.68622,0.35668"
       style="fill:#0000CD;fill-opacity:1;fill-rule:nonzero;stroke:none;stroke-width:0.0353262" />
    <path
       id="path16"
       d="m 61.14565,110.95048 c -0.08456,-8.28865 2.631088,-17.009011 9.008777,-22.300261 5.781462,-4.79558 13.764942,-6.14853 21.253595,-5.58767 2.365485,0.17711 4.969043,0.6654 6.409399,2.55215 0.952659,1.24717 1.207325,2.88301 1.329986,4.4475 0.257123,3.28029 0.0703,6.59378 -0.553946,9.82363 -0.751336,3.886651 -2.125199,7.620781 -3.493409,11.335231 -1.306388,3.54719 -2.612653,7.09313 -3.919041,10.64033 -2.343484,-2.0282 -4.846748,-3.86943 -7.479065,-5.50405 -0.40953,1.6506 -0.630764,3.34793 -0.658049,5.04773 -0.734743,-0.89048 -1.650407,-1.63092 -2.674722,-2.16226 -0.066,4.96286 -0.436567,9.92203 -1.108997,14.83937 -2.229426,-2.20407 -4.789104,-4.07237 -7.566946,-5.52372 -0.198372,2.37381 -0.396869,4.74639 -0.595119,7.1202 -0.614908,-1.26193 -2.172642,-4.94194 -2.787427,-6.20387 0.454144,0.45508 -0.74986,8.88639 -1.214453,10.29715 -1.840422,-1.99252 -3.193761,-6.27645 -3.59444,-9.15945 -0.904356,-6.50522 -2.288544,-13.03627 -2.356143,-19.66201"
       style="fill:#0000CD;fill-opacity:1;fill-rule:nonzero;stroke:none;stroke-width:0.0353262" />
    <path
       id="path17"
       d="m 83.163977,197.44192 c 0,0 -1.449575,-31.19649 0.530963,-48.9361 4.039366,-36.18272 14.364486,-59.799021 14.364486,-59.799021 h 5.899954 c 0,0 -10.815285,45.756661 -10.707494,61.009301 0.19653,27.79937 8.003394,47.72582 8.003394,47.72582 H 83.163977"
       style="fill:#63442b;fill-opacity:1;fill-rule:nonzero;stroke:none;stroke-width:0.0353262" />
    <path
       id="path19"
       d="m 90.741124,136.48797 c -0.525923,-0.20294 -0.966302,-0.0603 -1.444045,0.19679 -1.518404,0.81669 -2.990594,1.73669 -4.420504,2.70835 -0.0955,0.64696 -0.189155,1.29883 -0.280967,1.95439 0.473564,-0.29027 0.986582,-0.51165 1.535611,-0.6285 1.15177,-0.24476 2.303048,0.0405 3.249068,0.72936 0.912592,0.66418 1.611938,1.56081 2.258187,2.4759 0.580986,0.82283 1.152016,1.65305 1.723169,2.48204 0.148472,-2.316 0.440256,-5.01698 0.83565,-7.96271 -0.66997,-0.44524 -1.358377,-0.8622 -2.063131,-1.24964 -0.451317,-0.24721 -0.911977,-0.52026 -1.393038,-0.70598"
       style="fill:#95693f;fill-opacity:1;fill-rule:nonzero;stroke:none;stroke-width:0.0353262" />
    <path
       id="path20"
       d="m 85.223298,150.8698 c 1.726364,-1.17092 3.852547,-2.65548 6.053705,-2.01959 0.552593,0.1599 1.048035,0.45632 1.519632,0.77856 0.154004,0.10455 0.305672,0.21401 0.457832,0.32102 -6.26e-4,-0.0774 -0.0021,-0.15497 -0.0026,-0.23369 -0.0044,-0.62851 0.0102,-1.31113 0.04117,-2.03804 -0.813404,-1.17705 -1.613044,-2.36518 -2.447097,-3.5275 -0.579142,-0.80684 -1.227603,-1.62475 -2.068292,-2.17332 -0.886903,-0.57808 -1.89905,-0.7183 -2.906157,-0.37759 -0.524693,0.17711 -0.994693,0.46 -1.420937,0.80193 -0.270275,1.99252 -0.523712,4.02686 -0.755638,6.10424 -0.129299,1.15738 -0.24385,2.37381 -0.345248,3.63452 0.624494,-0.42434 1.249112,-0.84744 1.873606,-1.27054"
       style="fill:#95693f;fill-opacity:1;fill-rule:nonzero;stroke:none;stroke-width:0.0353262" />
    <path
       id="path22"
       d="m 100.08495,106.14014 c 0.32263,-1.52515 0.63752,-2.99248 0.93938,-4.38478 -0.57029,-0.38129 -1.17389,-0.71584 -1.804898,-0.98397 -0.754286,-0.31978 -1.549131,-0.54363 -2.374335,-0.44155 -1.365014,0.17097 -2.549109,1.03808 -3.60206,1.90151 -0.17834,0.57439 -0.359384,1.16599 -0.542392,1.77236 0.974413,0.0111 1.95829,0.0787 2.918077,0.21278 1.62386,0.22631 3.26726,0.80439 4.466228,1.92365"
       style="fill:#95693f;fill-opacity:1;fill-rule:nonzero;stroke:none;stroke-width:0.0353262" />
    <path
       id="path25"
       d="m 95.758223,108.35282 c 0.564025,-0.18819 1.142182,-0.43171 1.728085,-0.54118 0.594874,-0.1107 1.10322,0.0394 1.593991,0.38251 0.169982,0.11931 0.333941,0.24723 0.493475,0.38006 0.106807,-0.51289 0.213123,-1.02085 0.318824,-1.52268 -0.434726,-0.49568 -0.972202,-0.89541 -1.556874,-1.20781 -1.60739,-0.85728 -3.47055,-0.9815 -5.256278,-1.03809 -0.201938,-0.006 -0.40658,-0.0172 -0.611343,-0.0234 -0.484995,1.63092 -0.982525,3.37377 -1.485219,5.22484 1.028739,-0.36898 2.059567,-0.73305 3.093714,-1.08727 0.559722,-0.19065 1.120306,-0.38005 1.681625,-0.56701"
       style="fill:#95693f;fill-opacity:1;fill-rule:nonzero;stroke:none;stroke-width:0.0353262" />
    <path
       id="path26"
       d="m 98.338797,108.6517 c -0.463609,-0.2337 -0.965688,-0.011 -1.420939,0.13898 -2.070997,0.67893 -4.131301,1.38985 -6.181159,2.13028 -0.184116,0.68878 -0.3686,1.39231 -0.553331,2.10814 0.943072,0.1107 1.849641,0.52026 2.621748,1.06144 1.042996,0.73059 1.932481,1.66782 2.806724,2.58782 0.654485,0.68754 1.289303,1.39477 1.906669,2.11552 0.615646,-3.1905 1.251326,-6.34409 1.872625,-9.34148 -0.312802,-0.30011 -0.662597,-0.60391 -1.052337,-0.8007"
       style="fill:#95693f;fill-opacity:1;fill-rule:nonzero;stroke:none;stroke-width:0.0353262" />
    <path
       id="path28"
       d="m 96.7759,93.039919 c 0.791527,-0.34439 1.621032,-0.57439 2.469711,-0.72567 0.821519,-0.14637 1.657539,-0.2423 2.492939,-0.23861 0.46865,0.003 0.9454,0.0394 1.41394,0.11807 0.50379,-2.2053 0.80689,-3.48691 0.80689,-3.48691 h -5.900076 c 0,0 -0.696642,1.59402 -1.797405,4.5828 0.168507,-0.0898 0.339349,-0.17342 0.514001,-0.24968"
       style="fill:#95693f;fill-opacity:1;fill-rule:nonzero;stroke:none;stroke-width:0.0353262" />
    <path
       id="path31"
       d="m 99.09554,93.134619 c -1.16787,0.23985 -2.329472,0.64204 -3.272422,1.36279 -0.17625,0.49075 -0.359997,1.00979 -0.551118,1.55958 0.775303,-0.0984 1.556751,-0.13407 2.338198,-0.091 0.768298,0.0431 1.535857,0.15865 2.24479,0.46984 0.664442,0.2915 1.143532,0.77486 1.587352,1.33449 0.11504,0.14514 0.23267,0.29765 0.35742,0.44401 0.44812,-2.02696 0.84917,-3.80793 1.18053,-5.26542 -1.2796,-0.21155 -2.63084,-0.0713 -3.88475,0.18572"
       style="fill:#95693f;fill-opacity:1;fill-rule:nonzero;stroke:none;stroke-width:0.0353262" />
    <path
       id="path32"
       d="m 100.8911,98.321329 c -0.40818,-0.51412 -0.82864,-0.96674 -1.450067,-1.22011 -0.680048,-0.27551 -1.427205,-0.34685 -2.154206,-0.36899 -0.772967,-0.0233 -1.54286,0.0333 -2.301694,0.15743 -0.41887,1.22381 -0.867116,2.57552 -1.336132,4.051471 0.323494,-0.23246 0.656329,-0.45139 1.00428,-0.64572 0.743224,-0.414501 1.556014,-0.713371 2.410838,-0.765031 0.935451,-0.0566 1.82764,0.24721 2.670788,0.621121 0.508103,0.22508 0.997023,0.49321 1.466293,0.79086 0.1363,-0.62605 0.26941,-1.233641 0.3992,-1.824021 -0.25983,-0.23738 -0.48733,-0.51658 -0.7093,-0.79701"
       style="fill:#95693f;fill-opacity:1;fill-rule:nonzero;stroke:none;stroke-width:0.0353262" />
    <path
       id="path33"
       d="m 90.329505,121.15662 c 1.185938,-0.45508 2.4219,-0.82161 3.674454,-1.03932 0.644161,-0.11315 1.296556,-0.1562 1.93543,0.011 0.436938,0.11439 0.843394,0.31364 1.215682,0.56578 0.05814,-0.30626 0.116271,-0.61252 0.174774,-0.91878 -0.794107,-0.94706 -1.61759,-1.86953 -2.474381,-2.76001 -0.816967,-0.8499 -1.64721,-1.733 -2.637971,-2.38364 -0.66026,-0.43295 -1.434211,-0.76873 -2.229303,-0.84129 -0.668127,2.62963 -1.335147,5.44007 -1.982872,8.41778 0.753425,-0.39358 1.529343,-0.74534 2.324187,-1.0516"
       style="fill:#95693f;fill-opacity:1;fill-rule:nonzero;stroke:none;stroke-width:0.0353262" />
    <path
       id="path34"
       d="m 89.241649,124.67797 c 0.559968,0.0947 1.074214,0.39235 1.576538,0.64327 0.535018,0.26813 1.067824,0.53994 1.598294,0.81545 1.148452,0.59775 2.285226,1.21765 3.411553,1.85477 0.368355,-2.12535 0.761047,-4.28884 1.167256,-6.45109 -0.195546,-0.15867 -0.406825,-0.29888 -0.635432,-0.41819 -1.001946,-0.5215 -2.080216,-0.29519 -3.127268,-0.0467 -1.908267,0.45262 -3.73935,1.17829 -5.444082,2.14134 -0.128438,0.60268 -0.256262,1.21028 -0.382734,1.82649 0.556158,-0.31364 1.185322,-0.47601 1.835875,-0.3653"
       style="fill:#95693f;fill-opacity:1;fill-rule:nonzero;stroke:none;stroke-width:0.0353262" />
    <path
       id="path35"
       d="m 92.676923,130.46736 c 1.013743,0.60144 1.740744,1.52144 2.318411,2.5423 0.216809,-1.37385 0.448368,-2.776 0.691479,-4.19783 -0.234877,-0.13406 -0.468156,-0.27058 -0.704015,-0.40342 -1.000102,-0.55963 -2.008929,-1.10449 -3.026114,-1.63214 -0.508593,-0.26444 -1.019276,-0.52519 -1.531924,-0.78103 -0.442592,-0.22138 -0.908904,-0.5055 -1.408893,-0.56701 -0.689513,-0.0848 -1.331462,0.2706 -1.838211,0.73921 -0.310957,1.54728 -0.615399,3.13392 -0.9105,4.75991 2.03437,-0.89663 4.34934,-1.68135 6.409767,-0.45999"
       style="fill:#95693f;fill-opacity:1;fill-rule:nonzero;stroke:none;stroke-width:0.0353262" />
    <path
       id="path36"
       d="m 86.505105,137.41781 c 0.501095,-0.30995 1.006738,-0.61129 1.51656,-0.90647 0.493229,-0.28535 0.990146,-0.60637 1.531062,-0.79332 0.580249,-0.20171 1.133335,-0.10947 1.680889,0.13775 0.525186,0.23616 1.034392,0.51781 1.536225,0.79947 0.524571,0.29519 1.03894,0.6076 1.543969,0.93476 0.147367,-1.0639 0.307147,-2.1561 0.477865,-3.27167 -0.259827,-0.5461 -0.547185,-1.07744 -0.887148,-1.5768 -0.501833,-0.73673 -1.141323,-1.38984 -1.953375,-1.77851 -1.013744,-0.48337 -2.170921,-0.40834 -3.228912,-0.12545 -0.906569,0.24353 -1.767662,0.62112 -2.619782,1.01225 -0.374623,2.10813 -0.733759,4.279 -1.072002,6.51136 0.48733,-0.32101 0.978224,-0.63712 1.474649,-0.94337"
       style="fill:#95693f;fill-opacity:1;fill-rule:nonzero;stroke:none;stroke-width:0.0353262" />
    <path
       id="path39"
       d="m 88.437585,154.88313 c -0.139747,-0.0714 -0.27937,-0.14391 -0.419116,-0.21525 -0.513386,-0.26443 -1.028739,-0.53502 -1.593869,-0.67155 -0.195915,-0.0467 -0.39097,-0.0688 -0.583443,-0.0688 -0.304813,0 -0.603479,0.0554 -0.889239,0.15375 0.02138,-0.27551 0.04364,-0.5498 0.06674,-0.8253 0.271996,-0.0676 0.551242,-0.10332 0.834545,-0.10332 0.289203,0 0.582706,0.0381 0.877685,0.11684 0.597332,0.16112 1.152507,0.45263 1.700185,0.73428 0.0016,0.29397 0.0038,0.58669 0.0065,0.87942 m -3.294054,-3.01953 c 0.03207,-0.33577 0.06551,-0.67278 0.100415,-1.00856 0.965195,-0.65434 2.054897,-1.40338 3.211951,-1.82525 -0.0044,0.28289 -0.0082,0.56578 -0.01156,0.84867 -0.191735,0.0787 -0.378801,0.16727 -0.559722,0.25829 -0.965196,0.48706 -1.848411,1.12171 -2.741091,1.72685 m 3.36829,-10.04502 c -0.492737,-0.26566 -1.018291,-0.40219 -1.556136,-0.40219 -0.09624,0 -0.19272,0.004 -0.289572,0.0135 0.0939,-0.29643 0.206854,-0.56824 0.330131,-0.79702 0.484626,0.004 0.959911,0.1021 1.409876,0.27797 0.03257,0.17342 0.05961,0.37268 0.08001,0.59653 0.0093,0.10455 0.01795,0.20785 0.02569,0.31118"
       style="fill:#806753;fill-opacity:1;fill-rule:nonzero;stroke:none;stroke-width:0.0353262" />
    <path
       id="path40"
       d="m 88.406121,140.91087 c -0.449966,-0.17588 -0.925251,-0.27305 -1.409877,-0.27796 0.242867,-0.4514 0.525801,-0.7392 0.782064,-0.7392 0.259949,0 0.492367,0.29641 0.627813,1.01716"
       style="fill:#a98563;fill-opacity:1;fill-rule:nonzero;stroke:none;stroke-width:0.0353262" />
    <path
       id="path41"
       d="m 85.243947,150.85504 c 0.302968,-2.92237 0.712128,-5.83244 1.248252,-8.72652 0.04498,-0.2423 0.104104,-0.47722 0.173915,-0.69861 0.09685,-0.009 0.193334,-0.0135 0.289571,-0.0135 0.537845,0 1.063399,0.13652 1.556136,0.40219 0.146261,1.963 0.0076,3.97275 -0.03294,5.93207 -0.0088,0.42679 -0.01647,0.85358 -0.02299,1.27915 -1.157054,0.42187 -2.246756,1.1709 -3.211951,1.82524"
       style="fill:#a98563;fill-opacity:1;fill-rule:nonzero;stroke:none;stroke-width:0.0353262" />
    <path
       id="path48"
       d="m 64.950385,99.903049 c -4.351798,5.242051 -7.298391,11.545551 -9.248484,18.075371 -1.950019,6.52981 -2.938322,13.30808 -3.685847,20.08142 2.371593,-4.5545 4.743038,-9.11025 7.114644,-13.66476 -0.957575,3.50536 -1.314868,7.17431 -1.051846,10.79897 1.149066,-1.7293 1.719604,-3.76734 2.3323,-5.75125 2.433453,-7.87907 5.792893,-15.47032 9.987001,-22.56838 -0.80689,6.55319 -1.61501,13.17155 -0.970235,19.74318 0.640351,-2.99001 1.2807,-5.98002 1.92105,-8.97004 0.237704,1.31483 0.475285,2.63087 0.712865,3.9457 1.304913,-6.00094 3.297495,-11.8506 5.926249,-17.40014 -0.04683,3.16097 0.66911,6.33057 2.070015,9.16437 0.85175,-2.51771 1.703502,-5.03542 2.555253,-7.55313 0.04302,2.03926 0.08616,4.07975 0.129176,6.12024 1.355305,-5.29371 3.202979,-10.46074 5.511189,-15.412531 0.747648,4.442591 2.225247,8.760951 4.355486,12.731231 -0.276543,-0.51657 2.955073,-5.63933 3.325026,-6.43633 1.017062,-2.19178 1.941453,-4.425371 2.770097,-6.694631 1.088472,-2.98018 2.723266,-7.13618 -0.428825,-9.49031 -2.816188,-2.10445 -7.739754,-0.8376 -10.856206,-0.16604 -4.055959,0.87449 -7.979178,2.36888 -11.591194,4.41183 -4.124296,2.33199 -7.848282,5.38474 -10.877714,9.03523"
       style="fill:#0000FF;fill-opacity:1;fill-rule:nonzero;stroke:none;stroke-width:0.0353262" />
    <path
       id="path49"
       d="m 137.7186,95.673239 c 9.8384,8.318171 15.89788,20.703791 17.39945,33.503891 -2.15838,-4.92595 -4.31677,-9.85314 -6.47515,-14.77909 0.0511,5.04895 -0.36479,10.10404 -1.24088,15.07675 -1.66099,-5.61843 -3.04283,-11.31925 -4.13892,-17.0742 -0.24274,2.71573 -0.48561,5.4327 -0.72836,8.14966 -1.14955,-6.00463 -2.92778,-11.88994 -5.2961,-17.52558 -0.25982,5.5397 -0.51977,11.0794 -0.7796,16.6191 -0.96974,-3.43525 -2.04912,-6.83852 -3.23604,-10.20491 0.15941,2.47959 0.31907,4.95918 0.47861,7.43876 -1.93396,-6.97752 -3.93835,-14.10755 -8.09472,-20.033461 0.881,3.265521 1.26349,6.666331 1.13002,10.046251 -1.58969,-2.10445 -3.07245,-4.28884 -4.44054,-6.54334 0.83466,2.51525 1.2496,5.16948 1.22243,7.8188 -3.16082,-5.60243 -6.32175,-11.204871 -9.48258,-16.807301 0.64108,2.75756 1.28218,5.51511 1.92326,8.27389 -2.31066,-2.4845 -4.70761,-4.88906 -7.18495,-7.20629 0.81095,2.21883 1.6219,4.43766 2.43283,6.65773 -0.69061,-1.51284 -3.60205,-3.22985 -4.86542,-4.36264 -1.70239,-1.52514 -3.57158,-2.97279 -5.15512,-4.62093 -3.488497,-3.62958 0.837,-4.1314 4.00138,-4.51146 7.4202,-0.89048 15.03102,0.41941 21.85192,3.42665 3.85045,1.69733 7.4637,3.94076 10.67848,6.65772"
       style="fill:#0000FF;fill-opacity:1;fill-rule:nonzero;stroke:none;stroke-width:0.0353262" />
    <path
       id="path50"
       d="m 85.135665,83.505329 c -0.338242,-0.35177 -0.683613,-0.7884 -0.611835,-1.27054 0.05298,-0.35546 0.32251,-0.63588 0.585164,-0.88187 5.69002,-5.331845 14.822197,-6.572868 21.727276,-2.953118 1.03771,0.543637 2.04728,1.204118 2.74466,2.146268 0.69726,0.94214 1.03833,2.21022 0.6444,3.31472 -0.38347,1.07375 -1.36771,1.80926 -2.35503,2.37872 -6.87706,3.96783 -17.128684,3.08964 -22.734635,-2.73418"
       style="fill:#0000FF;fill-opacity:1;fill-rule:nonzero;stroke:none;stroke-width:0.0353262" />
    <path
       id="path51"
       d="m 71.19816,98.043359 c -0.328041,-1.37631 0.884569,-2.60627 2.023924,-3.44386 4.089881,-3.01093 8.812369,-5.14489 13.75978,-6.27399 0.694675,-0.15866 2.541488,-0.58422 4.514406,-0.80931 1.932603,0.68632 3.999176,1.06637 6.074352,1.14017 0.247168,0.46246 0.269782,1.07498 -0.01463,1.87445 -0.38421,1.07989 -1.485955,1.76744 -2.605892,2.00728 -0.49876,0.107 -1.005387,0.14144 -1.515085,0.14144 -0.635188,0 -1.275169,-0.0529 -1.909743,-0.0885 -0.557879,-0.0308 -1.116372,-0.0455 -1.674988,-0.0455 -5.143571,0 -10.285545,1.28899 -14.814822,3.72922 -1.243827,0.67032 -2.464671,1.43535 -3.837306,1.76867"
       style="fill:#000080;fill-opacity:1;fill-rule:nonzero;stroke:none;stroke-width:0.0353262" />
    <path
       id="path52"
       d="m 97.570622,88.656369 c -2.075176,-0.0738 -4.141749,-0.45385 -6.074352,-1.14017 0.769649,-0.0885 1.558594,-0.14636 2.305629,-0.14636 1.737548,0 3.249192,0.31241 3.768723,1.28653"
       style="fill:#000080;fill-opacity:1;fill-rule:nonzero;stroke:none;stroke-width:0.0353262" />
    <path
       id="path53"
       d="m 89.452312,83.507789 c -0.207468,0 -0.41211,-0.0418 -0.604337,-0.13529 -0.799148,-0.38867 -0.980191,-1.52883 -0.584059,-2.32584 0.396132,-0.79578 1.193927,-1.30621 1.987174,-1.707175 2.714544,-1.372626 5.466082,-2.057709 8.44758,-2.057709 0.377082,0 0.75785,0.01106 1.142551,0.03321 0.361469,0.02092 0.735609,0.05411 1.050859,0.232463 0.31514,0.17711 0.55432,0.541178 0.47504,0.894173 -0.0667,0.29765 -0.33099,0.507971 -0.59733,0.655563 -1.137265,0.628505 -2.512482,0.554705 -3.811126,0.611285 -1.622383,0.0689 -3.33154,0.41573 -4.516863,1.52637 -0.548047,0.51412 -0.955486,1.16599 -1.522952,1.65921 -0.405842,0.35176 -0.945162,0.61374 -1.466537,0.61374"
       style="fill:#000080;fill-opacity:1;fill-rule:nonzero;stroke:none;stroke-width:0.0353262" />
    <path
       id="path54"
       d="m 59.975444,115.67349 c -0.265235,0 -0.516705,-0.10823 -0.631501,-0.34684 -0.08026,-0.16604 -0.0794,-0.35916 -0.06428,-0.54242 0.07203,-0.87202 0.425138,-1.69241 0.785258,-2.48942 1.831205,-4.05269 3.966237,-7.96885 6.381008,-11.70299 0.330253,-0.51043 0.677099,-1.030701 1.172417,-1.383691 0.375361,-0.2669 0.802958,-0.39728 1.192084,-0.39728 0.851505,0 1.519264,0.62113 1.054918,1.779741 -0.25147,0.62728 -0.766576,1.10327 -1.250096,1.57557 -3.394224,3.31349 -5.945422,7.48426 -7.349275,12.01541 -0.143802,0.46491 -0.29375,0.96058 -0.665792,1.27299 -0.169735,0.14267 -0.402032,0.21893 -0.62474,0.21893"
       style="fill:#000080;fill-opacity:1;fill-rule:nonzero;stroke:none;stroke-width:0.0353262" />
  </g>
</svg>
